<?xml version="1.0" encoding="UTF-8"?>
<svg width="512" height="512" viewBox="0 0 512 512" fill="none" xmlns="http://www.w3.org/2000/svg">
  <defs>
    <linearGradient id="bgGrad" x1="0%" y1="0%" x2="100%" y2="100%">
      <stop offset="0%" stop-color="#0F172A"/>
      <stop offset="100%" stop-color="#1E293B"/>
    </linearGradient>
    <linearGradient id="shieldGrad" x1="0%" y1="0%" x2="0%" y2="100%">
      <stop offset="0%" stop-color="#3B82F6"/>
      <stop offset="100%" stop-color="#1D4ED8"/>
    </linearGradient>
    <linearGradient id="textGrad" x1="0%" y1="0%" x2="100%" y2="0%">
      <stop offset="0%" stop-color="#F8FAFC"/>
      <stop offset="100%" stop-color="#CBD5E1"/>
    </linearGradient>
  </defs>
  <rect width="512" height="512" rx="64" fill="url(#bgGrad)"/>
  <path d="M256 60 L390 105 L390 260 C390 365 330 430 256 470 C182 430 122 365 122 260 L122 105 L256 60Z" fill="url(#shieldGrad)"/>
  <path d="M256 85 L365 122 L365 255 C365 340 318 395 256 430 C194 395 147 340 147 255 L147 122 L256 85Z" fill="#0F172A" opacity="0.3"/>
  <text x="256" y="300" font-family="system-ui,-apple-system,'Segoe UI',sans-serif" font-size="96" font-weight="800" fill="url(#textGrad)" text-anchor="middle">UCX</text>
  <rect x="241" y="330" width="30" height="24" rx="4" fill="#60A5FA"/>
  <path d="M248 330 L248 320 C248 312 264 312 264 320 L264 330" stroke="#60A5FA" stroke-width="4" stroke-linecap="round" fill="none"/>
  <circle cx="256" cy="342" r="4" fill="#F8FAFC"/>
</svg>
